<svg viewBox="0 0 100 100" xmlns="http://www.w3.org/2000/svg">
  <!-- Outer circle with notes -->
  <circle cx="50" cy="50" r="42" fill="none" stroke="#c9943a" stroke-width="2"/>
  <circle cx="50" cy="50" r="38" fill="none" stroke="#c9943a" stroke-width="1"/>
  
  <!-- Musical notes around the circle -->
  <g fill="#c9943a">
    <ellipse cx="50" cy="12" rx="4" ry="3"/>
    <ellipse cx="85" cy="35" rx="4" ry="3" transform="rotate(60 85 35)"/>
    <ellipse cx="85" cy="65" rx="4" ry="3" transform="rotate(120 85 65)"/>
    <ellipse cx="50" cy="88" rx="4" ry="3"/>
    <ellipse cx="15" cy="65" rx="4" ry="3" transform="rotate(-120 15 65)"/>
    <ellipse cx="15" cy="35" rx="4" ry="3" transform="rotate(-60 15 35)"/>
  </g>
  
  <!-- Inner triangle -->
  <polygon points="50,25 72,68 28,68" fill="none" stroke="#c9943a" stroke-width="2.5"/>
  
  <!-- Center circles (trinity symbol) -->
  <circle cx="50" cy="38" r="6" fill="none" stroke="#c9943a" stroke-width="2"/>
  <circle cx="42" cy="52" r="6" fill="none" stroke="#c9943a" stroke-width="2"/>
  <circle cx="58" cy="52" r="6" fill="none" stroke="#c9943a" stroke-width="2"/>
  <circle cx="50" cy="47" r="3" fill="#c9943a"/>
</svg>

