<svg viewBox="0 0 100 100" xmlns="http://www.w3.org/2000/svg">
  <!-- Infinity/DNA helix shape -->
  <path d="M50,20 
           C65,20 75,35 75,50 
           C75,65 65,80 50,80 
           C35,80 25,65 25,50 
           C25,35 35,20 50,20" 
        fill="none" stroke="#c9943a" stroke-width="3"/>
  
  <!-- Twisted strands -->
  <path d="M38,25 Q50,40 62,25" fill="none" stroke="#c9943a" stroke-width="2.5"/>
  <path d="M35,38 Q50,50 65,38" fill="none" stroke="#c9943a" stroke-width="2.5"/>
  <path d="M35,50 Q50,62 65,50" fill="none" stroke="#c9943a" stroke-width="2.5"/>
  <path d="M35,62 Q50,74 65,62" fill="none" stroke="#c9943a" stroke-width="2.5"/>
  <path d="M38,75 Q50,85 62,75" fill="none" stroke="#c9943a" stroke-width="2.5"/>
  
  <!-- Musical notes on the strands -->
  <g fill="#c9943a">
    <ellipse cx="32" cy="32" rx="4" ry="3"/>
    <rect x="35" y="20" width="1.5" height="12"/>
    
    <ellipse cx="68" cy="32" rx="4" ry="3"/>
    <rect x="64" y="20" width="1.5" height="12"/>
    
    <ellipse cx="32" cy="68" rx="4" ry="3"/>
    <rect x="35" y="56" width="1.5" height="12"/>
    
    <ellipse cx="68" cy="68" rx="4" ry="3"/>
    <rect x="64" y="56" width="1.5" height="12"/>
  </g>
</svg>

