<?xml version="1.0" encoding="UTF-8" standalone="no"?>
<!-- Created with Inkscape (http://www.inkscape.org/) -->

<svg
   width="210mm"
   height="297mm"
   viewBox="0 0 210 297"
   version="1.1"
   id="svg1"
   xml:space="preserve"
   inkscape:version="1.4.2 (ebf0e940, 2025-05-08)"
   sodipodi:docname="drawing.svg"
   xmlns:inkscape="http://www.inkscape.org/namespaces/inkscape"
   xmlns:sodipodi="http://sodipodi.sourceforge.net/DTD/sodipodi-0.dtd"
   xmlns="http://www.w3.org/2000/svg"
   xmlns:svg="http://www.w3.org/2000/svg"><sodipodi:namedview
     id="namedview1"
     pagecolor="#ffffff"
     bordercolor="#000000"
     borderopacity="0.25"
     inkscape:showpageshadow="2"
     inkscape:pageopacity="0.0"
     inkscape:pagecheckerboard="0"
     inkscape:deskcolor="#d1d1d1"
     inkscape:document-units="mm"
     inkscape:zoom="2.1320949"
     inkscape:cx="345.90392"
     inkscape:cy="705.644"
     inkscape:window-width="1512"
     inkscape:window-height="916"
     inkscape:window-x="0"
     inkscape:window-y="38"
     inkscape:window-maximized="1"
     inkscape:current-layer="layer1" /><defs
     id="defs1" /><g
     inkscape:label="Layer 1"
     inkscape:groupmode="layer"
     id="layer1"><circle
       style="fill:none;fill-opacity:0;stroke:#000000;stroke-width:2.16389;stroke-dasharray:none;stroke-opacity:1"
       id="path2"
       cx="94.851357"
       cy="182.57402"
       r="14.065733" /><circle
       style="fill:#000000;fill-opacity:0;stroke:#000000;stroke-width:0.350698;stroke-dasharray:none;stroke-opacity:1"
       id="path2-9-9"
       cx="94.543861"
       cy="182.55444"
       r="8.7384996" /><ellipse
       style="fill:#000000;fill-opacity:0;stroke:#000000;stroke-width:0.600001;stroke-dasharray:none;stroke-opacity:1"
       id="path3"
       cx="94.733795"
       cy="163.772"
       rx="5.5940518"
       ry="2.9207883" /><ellipse
       style="fill:#000000;fill-opacity:0;stroke:#000000;stroke-width:0.600001;stroke-dasharray:none;stroke-opacity:1"
       id="path4"
       cx="94.801849"
       cy="163.86118"
       rx="2.3267295"
       ry="1.4851464" /><circle
       style="fill:#000000;fill-opacity:1;stroke:#000000;stroke-width:0.1;stroke-dasharray:none;stroke-opacity:1"
       id="path5"
       cx="94.599007"
       cy="182.93678"
       r="0.95279574" /><path
       style="fill:none;fill-opacity:1;stroke:#000000;stroke-width:0;stroke-dasharray:none;stroke-opacity:1"
       d="m 91.672562,166.05869 1.225024,1.42919 z"
       id="path6" /><path
       style="fill:none;fill-opacity:1;stroke:#000000;stroke-width:0;stroke-dasharray:none;stroke-opacity:1"
       d="m 90.719766,165.72162 2.17782,1.83754 3.130613,0.0681 3.062558,-2.04171 -3.538956,0.88474 z"
       id="path7" /><path
       style="fill:none;fill-opacity:1;stroke:#000000;stroke-width:0.600001;stroke-dasharray:none;stroke-opacity:1"
       d="m 92.303617,166.43162 c 0.04752,0.095 0.04752,0.33263 0.142555,0.28511 0.09504,-0.0475 -0.168325,-0.38819 -0.142555,-0.28511 0.04923,0.19693 0.155501,0.37578 0.213831,0.57021 0.02564,0.0854 -0.06306,0.43588 0,0.49894 0.0168,0.0168 0.05448,-0.0168 0.07128,0 0.04752,0.0475 -0.04752,0.23759 0,0.28511 0.09504,0.095 0.07128,-0.11879 0.07128,0.0713"
       id="path18" /><path
       style="fill:none;fill-opacity:1;stroke:#000000;stroke-width:0.600001;stroke-dasharray:none;stroke-opacity:1"
       d="m 97.150448,166.28906 c -0.04752,0.095 -0.237591,0.2376 -0.142552,0.28511 0.09503,0.0475 0.190071,-0.38014 0.142552,-0.28511 -0.09504,0.19008 -0.190071,0.38015 -0.285107,0.57022 -0.02376,0 -0.05448,-0.0168 -0.07128,0 -0.03564,0.0356 0.03564,0.17819 0,0.21383 -0.0168,0.0168 -0.05448,-0.0168 -0.07128,0 -0.0336,0.0336 0.02125,0.10005 0,0.14255 -0.05061,0.10124 -0.142552,0.23993 -0.142552,0.35639"
       id="path19" /><path
       style="fill:none;fill-opacity:1;stroke:#000000;stroke-width:0.600001;stroke-dasharray:none;stroke-opacity:1"
       d="m 92.820142,166.94813 c 0.808392,0 1.616784,0 2.425176,0 0.155155,0 0.398166,-0.0606 0.549095,-0.0229 0.07553,0.0189 0.159645,0.0341 0.228791,0.0686 0.06489,0.0325 0.227198,0.16016 0.297426,0.16016 -0.442327,1e-4 -0.884654,6e-5 -1.326981,6e-5 -0.164385,0 -0.318487,-0.007 -0.480459,-0.0229 -0.03794,-0.004 -0.07671,0.006 -0.114395,0 -0.140992,-0.0217 -0.260754,-0.0888 -0.388943,-0.1144 -0.03739,-0.007 -0.0774,0.009 -0.114395,0 -0.01654,-0.004 -0.02921,-0.0187 -0.04576,-0.0229 -0.07035,-0.0176 -0.530916,-0.009 -0.594855,0.0229 -0.069,0.0345 -0.157567,0.0559 -0.22879,0.0915 -0.01929,0.01 -0.02646,0.0361 -0.04576,0.0458 -0.03543,0.0177 -0.03295,-0.0128 -0.06864,0.0229 0.465209,-4e-5 0.930418,-2e-5 1.395627,-2e-5 0.09107,0 0.36054,-0.0247 0.434701,0 0.06653,0.0222 0.158896,0.0457 0.22879,0.0457 -0.150016,0.0405 -0.329741,-0.0376 -0.480459,5e-5 -0.06837,0.0171 -0.136633,0.0513 -0.205911,0.0686 -0.168991,0.0422 -0.339611,0.0598 -0.503338,0.1144 -0.08439,0.0281 -0.218477,-0.0395 -0.297427,0 -0.124912,0.0624 -0.210806,0.0686 -0.366065,0.0686"
       id="path20" /><path
       style="fill:none;fill-opacity:1;stroke:#000000;stroke-width:0.600001;stroke-dasharray:none;stroke-opacity:1"
       d="m 95.977444,167.03965 c -0.04036,0.22495 -0.02289,0.45768 -0.02289,0.68637"
       id="path21" /><path
       style="fill:none;fill-opacity:1;stroke:#000000;stroke-width:0.600001;stroke-dasharray:none;stroke-opacity:1"
       d="m 96.343508,166.90237 c -0.07197,0.0869 -0.04508,0.18032 -0.06864,0.27455 -0.0083,0.0331 -0.03639,0.0587 -0.04576,0.0915 -0.0063,0.022 0.0038,0.0461 0,0.0686 -0.004,0.0238 -0.01524,0.0458 -0.02289,0.0686 -0.0076,0.0381 -0.01738,0.0759 -0.02289,0.1144 -0.01048,0.0734 0,0.15445 0,0.22879"
       id="path22" /><path
       style="fill:none;fill-opacity:1;stroke:#000000;stroke-width:0.600001;stroke-dasharray:none;stroke-opacity:1"
       d="m 93.048933,167.77178 c 0,-0.0381 0.03813,-0.1144 0,-0.1144 -0.03813,0 0,0.15253 0,0.1144 0,-0.0305 0.01685,-0.56116 0,-0.59486 -0.03725,-0.0745 -0.05607,-0.15789 -0.09152,-0.22879 -0.02402,-0.0481 -0.04531,5.3e-4 -0.06864,-0.0229 -0.0213,-0.0213 0.0019,-0.0229 -0.04576,-0.0229"
       id="path23" /><path
       style="fill:none;fill-opacity:1;stroke:#000000;stroke-width:0.600001;stroke-dasharray:none;stroke-opacity:1"
       d="m 96.503663,166.7651 c -0.02289,0.0305 -0.09914,0.0686 -0.06864,0.0915 0.03051,0.0229 0.08979,-0.12325 0.06864,-0.0915 -0.0766,0.11491 -0.157805,0.26536 -0.27455,0.34319 -0.03441,0.0229 -0.03163,0.073 -0.06864,0.0915 -0.0068,0.003 -0.01749,-0.005 -0.02289,0 -0.0132,0.0132 -0.03208,0.0686 -0.06864,0.0686"
       id="path24" /><path
       style="fill:none;fill-opacity:1;stroke:#000000;stroke-width:0.600001;stroke-dasharray:none;stroke-opacity:1"
       d="m 94.258433,182.29929 v -9.61651 l -1.442238,0.83267 1.865765,-3.23159 1.460632,2.52988 0.113244,0.19615 -1.522743,-0.40802 v 9.61452 z"
       id="path25" /><path
       style="fill:none;fill-opacity:1;stroke:#000000;stroke-width:0.600001;stroke-dasharray:none;stroke-opacity:1"
       d="m 94.507136,182.46509 5.771534,-3.33219 -2.277349,-0.61021 h 5.210419 l -2.11348,3.66067 v -2.7856 z"
       id="path26" /></g></svg>
