<?xml version="1.0" encoding="UTF-8"?>
<svg xmlns="http://www.w3.org/2000/svg" viewBox="0 0 2029.54 1796.5">
  <defs>
    <style>
      .cls-1, .cls-2, .cls-3, .cls-4, .cls-5, .cls-6, .cls-7 {
        stroke: #000;
        stroke-miterlimit: 10;
      }

      .cls-1, .cls-5, .cls-7 {
        fill: none;
      }

      .cls-2, .cls-7 {
        stroke-width: 4px;
      }

      .cls-4, .cls-5 {
        stroke-width: 6px;
      }

      .cls-6 {
        stroke-width: .5px;
      }
    </style>
  </defs>
  <g id="Layer_3" data-name="Layer 3">
    <path class="cls-3" d="M1152.62,474.38c14.85,0,26.36-14.34,21.42-29.93-2.1-6.61-7.3-11.89-13.89-14.02-7.54-2.45-14.8-1.05-20.3,2.74l-37.84-65.55c7.07-4.06,11.73-11.86,11.3-20.7-.55-11.38-9.76-20.72-21.14-21.42-13.11-.8-23.99,9.61-23.99,22.55,0,8.84,5.08,16.49,12.47,20.19l-37.83,65.53c-3.7-2.66-8.23-4.22-13.14-4.22-12.48,0-22.59,10.11-22.59,22.58,0,13.75,12.29,24.63,26.49,22.25,11.54-1.93,19.74-12.7,18.58-24.36h0s77.96,0,77.96,0c0,16.09,10.03,24.36,22.5,24.36M1122.6,447.02h-63.06c-4.26,0-8.12-2.37-10.23-6.07-.02-.04-.05-.08-.07-.12-2.14-3.7-2.29-8.21-.15-11.91l30.31-52.49c2.14-3.71,6.14-6,10.42-5.82.32.01.63.02.95.02.63,0,1.25-.03,1.86-.08,4.46-.37,8.72,1.92,10.96,5.79l29.91,51.81c2.14,3.71,2.04,8.28-.18,11.95-.17.28-.34.57-.5.86-2.04,3.73-5.96,6.05-10.21,6.05Z"/>
  </g>
  <g id="Layer_4" data-name="Layer 4">
    <path class="cls-1" d="M1053.32,439.82c8.3-1.18,14.45.04,18.19,1.17,1.51.45,4.44,1.44,15.42,7.83,10.93,6.37,10.09,6.6,15.05,9.18,7.96,4.14,15.46,8.03,24.89,7.35,2.56-.18,10.64-.87,17.61-6.86,10.98-9.43,12.57-26.29,7.36-36.94-2.31-4.73-5.93-8.16-6.36-8.56-3.23-3.01-6.17-4.38-11.81-6.93-7.63-3.46-13.52-6.09-17.06-7.66-3.63-6.5-7.25-13-10.88-19.5-.28,1.64-.52,3.95-.31,6.69.02.26.2,2.39.72,4.42.3,1.16,1.59,5.62,6.17,10.33,5.05,5.19,8.45,4.87,18.83,10.67,7.37,4.11,11.05,6.17,13.69,9.83,6.24,8.65,4.13,18.94,3.97,19.67-.33,1.51-2.37,10.04-10.33,15.17-6.06,3.9-12.36,3.76-15.06,3.67-14.88-.52-24.76-11.25-44.39-21.02-.87-.43-5.4-2.63-11.51-3.16-5.43-.47-8.38.71-9.69,1.34-2.13,1.03-3.62,2.37-4.53,3.33Z"/>
    <path class="cls-1" d="M1128.9,439.41c-8.3-1.18-14.45.04-18.19,1.17-1.51.45-4.44,1.44-15.42,7.83-10.93,6.37-10.09,6.6-15.05,9.18-7.96,4.14-15.46,8.03-24.89,7.35-2.56-.18-10.64-.87-17.61-6.86-10.98-9.43-12.57-26.29-7.36-36.94,2.31-4.73,5.93-8.16,6.36-8.56,3.23-3.01,6.17-4.38,11.81-6.93,7.63-3.46,13.52-6.09,17.06-7.66,3.63-6.5,7.25-13,10.88-19.51.28,1.64.52,3.95.31,6.69-.02.26-.2,2.39-.72,4.42-.3,1.16-1.59,5.62-6.17,10.33-5.05,5.19-8.45,4.87-18.83,10.67-7.37,4.11-11.05,6.17-13.69,9.83-6.24,8.65-4.13,18.94-3.97,19.67.33,1.51,2.37,10.04,10.33,15.17,6.06,3.9,12.36,3.76,15.06,3.67,14.88-.52,24.76-11.25,44.39-21.02.87-.43,5.4-2.63,11.51-3.16,5.43-.47,8.38.71,9.69,1.34,2.13,1.03,3.62,2.37,4.53,3.33Z"/>
    <path class="cls-1" d="M1130.99,420.54c-8.73-3.41-12.34-7.95-14.06-11.25-3.51-6.76-.56-11.3-1.3-32.08-.32-8.87-1.02-12.79-3.46-16.77-3.9-6.34-9.82-8.92-11.25-9.51-9.23-3.76-17.55-.28-19.57.65-1.89.87-7.05,3.51-10.68,9.25-2.55,4.03-3.4,8.08-3.89,17.37-1.07,20.35,1.77,24.52-1.61,31.42-1.74,3.54-5.4,8.38-14.17,12.26,4.66-4.07,10.39-10.52,11.22-19.11.29-2.96-.16-4.59-.61-7.81-.88-6.34-3.14-22.63,4.17-35.5,1.53-2.69,5.55-9.56,14-13.25,9.96-4.34,19.11-1.29,20.86-.67,9.88,3.51,14.61,11.44,15.94,13.74,8.29,14.36,4.01,33.86,3.31,37.05-.33,1.5-.7,3-.67,5.22.14,8.18,6.33,14.68,11.78,19Z"/>
  </g>
  <g id="Tempo">
    <circle class="cls-5" cx="1100.35" cy="913.93" r="98.33"/>
    <circle class="cls-5" cx="1099.96" cy="913.9" r="87.4"/>
    <circle class="cls-7" cx="1099.96" cy="913.93" r="56.01"/>
    <rect class="cls-4" x="1089.24" y="791.37" width="20.67" height="22.44"/>
    <ellipse class="cls-4" cx="1100.07" cy="790.65" rx="15.94" ry="7.5"/>
    <ellipse class="cls-5" cx="1100.35" cy="789.87" rx="34.22" ry="19.83"/>
    <circle class="cls-2" cx="1099.57" cy="913.93" r="5.12"/>
    <rect class="cls-6" x="1104.15" y="911.66" width="58.66" height="3.6"/>
    <rect class="cls-6" x="1094.41" y="887.53" width="78.57" height="3.6" transform="translate(-305.29 815.14) rotate(-35.16)"/>
  </g>
  <g id="Contrapunto">
    <path class="cls-3" d="M1594.48,348.79c-6.22,12-14.27,18.74-24.39,27.03-11.35,9.3-19.17,13.37-29.82,19.07-4.03,2.16-8.47,4.54-13.66,7.54-.35.19-.71.4-1.07.61-28.53,16.56-42.8,24.84-52.37,39.17-1.64,2.44-19.47,29.78-11.52,58.61,4.89,17.76,17.89,28.89,17.33,29.33-.64.5-18.42-12.97-25.33-37-6.08-21.13-.36-38.61,1.33-43.56,1.31-3.83,4.77-12.86,12.32-22.28,4.41-5.51,9.55-10.31,19.57-17.27,9.33-6.49,14.74-9.18,26.07-15.15,3.12-1.65,6.7-3.55,10.93-5.85.94-.51,1.85-1.01,2.74-1.49,23.16-12.69,30.77-18.28,36.48-22.96,6.35-5.19,11.36-9.34,16.56-16.44,3.32-4.54,11.21-15.59,13.33-32,1.91-14.83-1.89-26.25-4.33-33.33-5.96-17.26-16.73-27.43-16-28,.57-.46,7.28,5.91,13.34,14.47,4.82,6.8,13.5,19.06,15.76,37.53.95,7.76,1.73,24.62-7.27,41.97Z"/>
    <path class="cls-3" d="M1521.06,385.14c-.91.48-1.82.98-2.74,1.49-4.24,2.36-8.19,4.81-11.88,7.3-8.79-4.52-21.79-12.54-34-26.11-7.1-7.88-14.55-16.17-18.95-29.31-10.44-31.2,6.8-58.59,8.39-61.02,8.4-12.87,19.68-20.26,20.44-19.56.81.75-10.08,9.98-16.67,27-1.87,4.83-5.7,15.05-4.78,28.56,1.03,15.2,7.49,25.81,10.44,30.56,5.71,9.16,11.87,14.4,19.69,21.07,6.69,5.7,16.61,13.16,30.04,20.04Z"/>
    <path class="cls-3" d="M1598.64,490.76c-7.79,24.3-27.98,36.61-28.84,35.83-.71-.64,12.21-9.92,17.76-27.44,5.53-17.49,2.25-38.53-7.44-54-10.6-16.93-29.08-27.54-47.09-37.87-.45-.26-.82-.47-1.07-.61,5.19-3,9.63-5.38,13.66-7.54,4.74,2.04,11.11,5.18,18.1,9.92,1.1.75,4.31,2.95,8.28,6.21,5.26,4.32,11.85,9.73,17.67,18.11,2.12,3.05,5.73,8.8,8.33,16.33,7.01,20.32,1.44,38.55.64,41.05Z"/>
  </g>
</svg>